Coordinates
version=1
nRows=26
nColumns=30
inDegrees=yes

Units are S.I. units (second, meters, Newtons, ...)
Angles are in degrees.

endheader
time	floatyaw	floatroll	floatpitch	floatx	floaty	floatz	pro_sup_l	deviation_l	flexion_l	cmc_flexion_l	cmc_abduction_l	mp_flexion_l	ip_flexion_l	2mcp_flexion_l	2mcp_abduction_l	2pm_flexion_l	2md_flexion_l	3mcp_flexion_l	3mcp_abduction_l	3pm_flexion_l	3md_flexion_l	4mcp_flexion_l	4mcp_abduction_l	4pm_flexion_l	4md_flexion_l	5mcp_flexion_l	5mcp_abduction_l	5pm_flexion_l	5md_flexion_l
0.005000	3.029614	-4.103828	101.268469	0.062392	-0.133162	0.040893	89.954094	24.756937	1.841826	28.116918	36.722251	-17.069104	-38.944302	32.141624	4.226202	55.994069	39.073229	37.370408	5.394760	53.584565	43.411501	38.042700	-5.050906	60.573357	52.431989	60.959691	-5.952928	50.093725	35.090976
0.015000	3.029614	-4.103828	101.268469	0.062241	-0.130455	0.040907	89.981033	24.832920	1.093740	28.217464	36.436541	-17.203682	-39.287589	32.398655	4.223651	55.975478	39.037244	38.119453	5.340234	52.900986	43.622246	38.317287	-5.014608	60.496145	52.931357	62.043301	-6.011266	49.301261	34.737066
0.025000	3.029614	-4.103828	101.268469	0.062009	-0.126851	0.041146	90.174067	24.839556	0.471813	28.306391	36.171166	-17.351870	-39.662832	32.694298	4.190580	55.779970	38.936921	38.793260	5.258389	52.160354	43.741605	38.531637	-4.962314	60.344384	53.343802	63.129908	-6.032922	48.238660	34.117648
0.035000	3.029614	-4.103828	101.268469	0.061780	-0.122800	0.041576	90.547672	24.845206	0.024577	28.392338	35.899422	-17.508625	-40.049659	33.090043	4.147268	55.403521	38.762923	39.415672	5.161325	51.380554	43.775584	38.793267	-4.908418	60.008469	53.664842	64.211790	-6.010971	47.033491	33.319434
0.045000	3.029614	-4.103828	101.268469	0.061619	-0.118944	0.042096	91.056717	24.916870	-0.273864	28.481359	35.583217	-17.644828	-40.384651	33.625152	4.118174	54.901269	38.523428	40.049404	5.073441	50.567550	43.748314	39.216325	-4.868794	59.412547	53.921724	65.254820	-5.959686	45.887615	32.519188
0.055000	3.029614	-4.103828	101.268469	0.061550	-0.115888	0.042564	91.601883	25.088593	-0.500653	28.567238	35.194234	-17.720803	-40.584983	34.300036	4.119856	54.366065	38.240946	40.754385	5.020609	49.727324	43.699820	39.863104	-4.854550	58.552138	54.164091	66.203337	-5.904766	45.002658	31.917143
0.065000	3.029614	-4.103828	101.268469	0.061547	-0.113979	0.042845	92.063115	25.343620	-0.738008	28.629946	34.728000	-17.712339	-40.595166	35.074296	4.152453	53.890999	37.941129	41.547056	5.016991	48.877744	43.671954	40.707630	-4.867358	57.503752	54.438944	66.997719	-5.866557	44.494313	31.650952
0.075000	3.029614	-4.103828	101.268469	0.061542	-0.113213	0.042865	92.347034	25.623068	-1.031977	28.644881	34.199828	-17.632160	-40.425233	35.878868	4.200189	53.537486	37.642558	42.385246	5.058298	48.053326	43.688449	41.642593	-4.899139	56.401075	54.760315	67.593594	-5.849109	44.349851	31.740217
0.085000	3.029614	-4.103828	101.268469	0.061470	-0.113288	0.042638	92.423752	25.856937	-1.377521	28.596910	33.626407	-17.529583	-40.150643	36.635021	4.240694	53.324514	37.353324	43.184766	5.125389	47.301937	43.740002	42.523991	-4.936223	55.390864	55.092087	67.974239	-5.842233	44.452418	32.090083
0.095000	3.029614	-4.103828	101.268469	0.061300	-0.113775	0.042253	92.333891	25.998246	-1.732679	28.489389	33.009230	-17.464691	-39.869878	37.273435	4.257279	53.237739	37.073887	43.856097	5.194404	46.674031	43.785008	43.228174	-4.965435	54.588406	55.358610	68.154375	-5.832549	44.648323	32.544847
0.105000	3.029614	-4.103828	101.268469	0.061049	-0.114296	0.041838	92.163634	26.040150	-2.047372	28.342504	32.334102	-17.472339	-39.646631	37.748947	4.246819	53.245861	36.802811	44.340641	5.246342	46.207025	43.768593	43.692919	-4.978925	54.048571	55.480514	68.175294	-5.813697	44.813327	32.957936
0.115000	3.029614	-4.103828	101.268469	0.060768	-0.114631	0.041501	92.002290	26.009094	-2.287575	28.183109	31.585820	-17.541152	-39.476236	38.047911	4.219216	53.313595	36.542327	44.628594	5.271662	45.911773	43.650441	43.926109	-4.975886	53.760505	55.415239	68.091624	-5.789267	44.887905	33.243523
0.125000	3.029614	-4.103828	101.268469	0.060510	-0.114733	0.041300	91.903857	25.943037	-2.444142	28.033228	30.763433	-17.623662	-39.299943	38.187421	4.189864	53.408351	36.301039	44.753208	5.270068	45.768817	43.424892	43.984873	-4.961218	53.664401	55.178272	67.954249	-5.768911	44.876301	33.390708
0.135000	3.029614	-4.103828	101.268469	0.060307	-0.114679	0.041231	91.869889	25.870606	-2.528229	27.903732	29.882785	-17.670517	-39.056083	38.208349	4.170482	53.502384	36.091683	44.770281	5.247816	45.735753	43.122034	43.942387	-4.942524	53.680179	54.834432	67.797951	-5.762137	44.820876	33.442693
0.145000	3.029614	-4.103828	101.268469	0.060160	-0.114590	0.041243	91.859254	25.802088	-2.561698	27.795225	28.966466	-17.663044	-38.730253	38.164462	4.163898	53.572652	35.924688	44.736824	5.214430	45.759781	42.791933	43.860801	-4.927122	53.734446	54.467357	67.639662	-5.773788	44.768831	33.459627
0.155000	3.029614	-4.103828	101.268469	0.060049	-0.114564	0.041273	91.816841	25.732927	-2.568908	27.703149	28.031921	-17.621333	-38.368939	38.109036	4.165124	53.600201	35.801685	44.697686	5.179576	45.788581	42.483878	43.779284	-4.920065	53.775663	54.146024	67.485469	-5.802606	44.746467	33.486966
0.165000	3.029614	-4.103828	101.268469	0.059945	-0.114651	0.041272	91.704401	25.653117	-2.571257	27.621623	27.087229	-17.586028	-38.049704	38.081777	4.166720	53.570210	35.713335	44.680959	5.150464	45.777305	42.231296	43.715624	-4.923287	53.775222	53.904476	67.338885	-5.842183	44.749926	33.541667
0.175000	3.029614	-4.103828	101.268469	0.059824	-0.114841	0.041218	91.517317	25.555078	-2.583459	27.542698	26.136255	-17.591058	-37.831934	38.100704	4.164132	53.473105	35.642815	44.698600	5.130328	45.694114	42.045286	43.674007	-4.935516	53.720251	53.740044	67.203875	-5.883169	44.753442	33.615345
0.185000	3.029614	-4.103828	101.268469	0.059669	-0.115090	0.041120	91.280809	25.436204	-2.611184	27.453294	25.188456	-17.646630	-37.722211	38.161702	4.157626	53.306962	35.573047	44.748214	5.118461	45.527262	41.914686	43.651225	-4.952833	53.607982	53.625051	67.081432	-5.916202	44.729224	33.685883
0.195000	3.029614	-4.103828	101.268469	0.059474	-0.115346	0.040998	91.031327	25.296756	-2.650975	27.335769	24.266589	-17.739788	-37.674311	38.243875	4.150551	53.081243	35.494389	44.814031	5.111710	45.292808	41.811173	43.637430	-4.970035	53.447946	53.523130	66.963682	-5.935180	44.668340	33.729767
0.205000	3.029614	-4.103828	101.268469	0.059239	-0.115575	0.040877	90.796113	25.136427	-2.693299	27.175401	23.406812	-17.846742	-37.619515	38.317168	4.146208	52.819462	35.409209	44.868936	5.106587	45.035858	41.699921	43.614000	-4.982594	53.267724	53.403676	66.831853	-5.939722	44.590149	33.731752
0.215000	3.029614	-4.103828	101.268469	0.058968	-0.115772	0.040772	90.582639	24.953053	-2.728204	26.970671	22.649030	-17.946433	-37.505866	38.350866	4.145833	52.555731	35.330367	44.881510	5.100803	44.816804	41.554704	43.555098	-4.988482	53.110256	53.252080	66.662419	-5.935063	44.532171	33.691146
0.225000	3.029614	-4.103828	101.268469	0.058666	-0.115958	0.040687	90.381821	24.744698	-2.751089	26.738078	22.020319	-18.028359	-37.323423	38.322459	4.148621	52.323326	35.273780	44.828365	5.093669	44.683719	41.371571	43.436323	-4.988997	53.016786	53.074740	66.439487	-5.928768	44.525038	33.623680
0.235000	3.029614	-4.103828	101.268469	0.058342	-0.116162	0.040620	90.179879	24.513298	-2.765102	26.506849	21.519798	-18.093281	-37.103773	38.223889	4.153055	52.141943	35.249817	44.705078	5.085625	44.646892	41.172896	43.245713	-4.988230	53.005502	52.897073	66.165006	-5.926157	44.570623	33.557553
0.245000	3.029614	-4.103828	101.268469	0.058005	-0.116408	0.040564	89.969359	24.266523	-2.778151	26.306705	21.114999	-18.148824	-36.897616	38.061090	4.158230	52.013925	35.259485	44.527071	5.077630	44.674883	40.997738	42.988298	-4.991398	53.063572	52.753518	65.857751	-5.927714	44.641595	33.524216
0.255000	3.029614	-4.103828	101.268469	0.057664	-0.116698	0.040515	89.752581	24.016034	-2.796080	26.156503	20.753627	-18.203399	-36.745769	37.846442	4.164234	51.932243	35.297073	44.318333	5.070854	44.716905	40.882823	42.679996	-5.002643	53.160169	52.672107	65.539588	-5.930161	44.704557	33.547425
